<svg version="1.1" id="Layer_1" xmlns="http://www.w3.org/2000/svg" xmlns:xlink="http://www.w3.org/1999/xlink" x="0px" y="0px"
	 width="100%" viewBox="0 0 225 225" enable-background="new 0 0 225 225" xml:space="preserve">
<path fill="#FEFEFE" opacity="1.000000" stroke="none" 
	d="
M147.000000,226.000000 
	C98.000000,226.000000 49.500008,226.000000 1.000006,226.000000 
	C1.000004,151.000000 1.000004,76.000015 1.000002,1.000017 
	C75.999992,1.000011 150.999985,1.000011 225.999969,1.000005 
	C225.999985,75.999985 225.999985,150.999969 226.000000,225.999969 
	C199.833328,226.000000 173.666672,226.000000 147.000000,226.000000 
M175.225281,111.309418 
	C174.844513,110.681702 174.463760,110.053978 173.989685,108.793800 
	C170.806259,106.457481 167.876678,103.601982 164.385513,101.895081 
	C157.534836,98.545624 150.311737,95.966156 143.371368,92.787247 
	C141.065216,91.730949 138.968964,90.009140 137.105148,88.244698 
	C134.541809,85.818024 132.290558,83.061684 129.179764,79.650703 
	C129.073578,80.149940 129.060013,79.079033 129.513016,78.269096 
	C132.351639,73.193787 135.559204,68.305595 138.098114,63.089443 
	C139.505524,60.197971 140.311737,56.825954 140.560745,53.606483 
	C140.866760,49.649879 140.226532,45.628048 140.148422,41.631424 
	C140.077057,37.981045 140.507904,34.299831 140.181839,30.680454 
	C139.712112,25.466139 138.963577,20.173468 131.903366,19.740833 
	C131.205750,19.698086 130.597488,18.760687 129.881363,18.356085 
	C127.199982,16.841150 124.642326,14.911052 121.765556,13.972903 
	C110.702988,10.365273 100.627251,12.801385 90.916504,18.945391 
	C86.655769,21.641167 84.121834,24.895845 84.022148,29.656429 
	C83.904289,35.284378 84.457291,40.925110 84.670952,46.562138 
	C84.726044,48.015572 85.032249,49.670952 84.479256,50.898468 
	C82.360260,55.602177 84.109581,59.646717 86.276154,63.622478 
	C89.051300,68.715004 92.026031,73.698822 94.795502,78.794312 
	C95.208191,79.553612 94.968842,80.667297 94.947823,80.346863 
	C92.146553,82.744576 89.448776,84.077515 88.325348,86.231537 
	C86.373146,89.974640 83.456795,91.723434 79.795029,93.282906 
	C71.255455,96.919739 62.746857,100.695908 54.549339,105.028015 
	C52.147942,106.297081 50.834476,109.624802 48.993530,112.554268 
	C48.970249,112.917229 48.946968,113.280190 48.052792,113.767136 
	C37.268070,113.873688 34.212315,116.807663 35.198269,125.854324 
	C37.811256,149.829941 40.370190,173.811478 42.922852,197.793625 
	C43.545860,203.646790 46.718208,206.849930 52.725815,206.859406 
	C93.198616,206.923233 133.671631,206.926849 174.144409,206.858551 
	C180.421005,206.847946 183.453384,203.647079 184.097504,197.415634 
	C185.226151,186.496246 186.491455,175.591080 187.662292,164.675949 
	C189.099396,151.278442 190.564728,137.883377 191.886353,124.474312 
	C192.570938,117.528473 189.131546,113.928589 182.064026,113.797401 
	C179.735031,113.754173 177.406357,113.694923 175.072525,113.106796 
	C175.046982,112.750519 175.021423,112.394249 175.225281,111.309418 
M152.499985,214.865356 
	C160.487503,214.863510 168.479309,214.992584 176.458267,214.730286 
	C177.778931,214.686859 179.043320,212.932343 180.333710,211.968582 
	C179.084915,210.982224 177.915100,209.859329 176.551941,209.070633 
	C175.927811,208.709549 174.923248,209.004486 174.091217,209.004486 
	C133.488953,209.004944 92.886673,209.005508 52.284401,209.007324 
	C51.286125,209.007370 50.053650,208.657761 49.344101,209.114258 
	C48.261719,209.810638 47.042095,210.983063 46.846241,212.119736 
	C46.720818,212.847687 48.182812,214.307159 49.203018,214.661224 
	C50.547657,215.127930 52.156982,214.859650 53.652519,214.859894 
	C86.268333,214.865433 118.884155,214.864334 152.499985,214.865356 
z"/>
<path fill="#018CD1" opacity="1.000000" stroke="none" 
	d="
M175.077530,113.643005 
	C177.406357,113.694923 179.735031,113.754173 182.064026,113.797401 
	C189.131546,113.928589 192.570938,117.528473 191.886353,124.474312 
	C190.564728,137.883377 189.099396,151.278442 187.662292,164.675949 
	C186.491455,175.591080 185.226151,186.496246 184.097504,197.415634 
	C183.453384,203.647079 180.421005,206.847946 174.144409,206.858551 
	C133.671631,206.926849 93.198616,206.923233 52.725815,206.859406 
	C46.718208,206.849930 43.545860,203.646790 42.922852,197.793625 
	C40.370190,173.811478 37.811256,149.829941 35.198269,125.854324 
	C34.212315,116.807663 37.268070,113.873688 48.950027,113.817902 
	C90.768425,113.886826 131.689590,113.906624 172.610748,113.911415 
	C173.432999,113.911507 174.255264,113.736389 175.077530,113.643005 
M115.660744,154.916641 
	C111.523300,153.557693 108.466553,155.169449 108.016754,159.218155 
	C107.793938,161.223724 109.630516,164.646393 111.372932,165.348129 
	C113.118706,166.051178 116.681274,164.842926 118.067917,163.262177 
	C120.482277,160.509888 119.313843,157.404572 115.660744,154.916641 
z"/>
<path fill="#424142" opacity="1.000000" stroke="none" 
	d="
M49.022373,112.008965 
	C50.834476,109.624802 52.147942,106.297081 54.549339,105.028015 
	C62.746857,100.695908 71.255455,96.919739 79.795029,93.282906 
	C83.456795,91.723434 86.373146,89.974640 88.325348,86.231537 
	C89.448776,84.077515 92.146553,82.744576 94.947823,80.346863 
	C94.968842,80.667297 95.208191,79.553612 94.795502,78.794312 
	C92.026031,73.698822 89.051300,68.715004 86.276154,63.622478 
	C84.109581,59.646717 82.360260,55.602177 84.479256,50.898468 
	C85.032249,49.670952 84.726044,48.015572 84.670952,46.562138 
	C84.457291,40.925110 83.904289,35.284378 84.022148,29.656429 
	C84.121834,24.895845 86.655769,21.641167 90.916504,18.945391 
	C100.627251,12.801385 110.702988,10.365273 121.765556,13.972903 
	C124.642326,14.911052 127.199982,16.841150 129.881363,18.356085 
	C130.597488,18.760687 131.205750,19.698086 131.903366,19.740833 
	C138.963577,20.173468 139.712112,25.466139 140.181839,30.680454 
	C140.507904,34.299831 140.077057,37.981045 140.148422,41.631424 
	C140.226532,45.628048 140.866760,49.649879 140.560745,53.606483 
	C140.311737,56.825954 139.505524,60.197971 138.098114,63.089443 
	C135.559204,68.305595 132.351639,73.193787 129.513016,78.269096 
	C129.060013,79.079033 129.073578,80.149940 129.179764,79.650703 
	C132.290558,83.061684 134.541809,85.818024 137.105148,88.244698 
	C138.968964,90.009140 141.065216,91.730949 143.371368,92.787247 
	C150.311737,95.966156 157.534836,98.545624 164.385513,101.895081 
	C167.876678,103.601982 170.806259,106.457481 174.020721,109.520294 
	C174.041641,110.790733 174.031509,111.334679 173.555191,111.942245 
	C131.733459,112.006905 90.377914,112.007935 49.022373,112.008965 
z"/>
<path fill="#4A494B" opacity="1.000000" stroke="none" 
	d="
M151.999969,214.864929 
	C118.884155,214.864334 86.268333,214.865433 53.652519,214.859894 
	C52.156982,214.859650 50.547657,215.127930 49.203018,214.661224 
	C48.182812,214.307159 46.720818,212.847687 46.846241,212.119736 
	C47.042095,210.983063 48.261719,209.810638 49.344101,209.114258 
	C50.053650,208.657761 51.286125,209.007370 52.284401,209.007324 
	C92.886673,209.005508 133.488953,209.004944 174.091217,209.004486 
	C174.923248,209.004486 175.927811,208.709549 176.551941,209.070633 
	C177.915100,209.859329 179.084915,210.982224 180.333710,211.968582 
	C179.043320,212.932343 177.778931,214.686859 176.458267,214.730286 
	C168.479309,214.992584 160.487503,214.863510 151.999969,214.864929 
z"/>
<path fill="#D1E3EF" opacity="1.000000" stroke="none" 
	d="
M49.007950,112.281616 
	C90.377914,112.007935 131.733459,112.006905 173.795563,112.001831 
	C174.502136,111.997780 174.995880,112.037971 174.995880,112.037971 
	C175.021423,112.394249 175.046982,112.750519 175.075027,113.374901 
	C174.255264,113.736389 173.432999,113.911507 172.610748,113.911415 
	C131.689590,113.906624 90.768425,113.886826 49.385475,113.755913 
	C48.946968,113.280190 48.970249,112.917229 49.007950,112.281616 
z"/>
<path fill="#2B2A2C" opacity="1.000000" stroke="none" 
	d="
M175.110580,111.673691 
	C174.995880,112.037971 174.502136,111.997780 174.261749,111.938202 
	C174.031509,111.334679 174.041641,110.790733 174.067383,109.836533 
	C174.463760,110.053978 174.844513,110.681702 175.110580,111.673691 
z"/>
<path fill="#F4F9FC" opacity="1.000000" stroke="none" 
	d="
M116.010857,155.057693 
	C119.313843,157.404572 120.482277,160.509888 118.067917,163.262177 
	C116.681274,164.842926 113.118706,166.051178 111.372932,165.348129 
	C109.630516,164.646393 107.793938,161.223724 108.016754,159.218155 
	C108.466553,155.169449 111.523300,153.557693 116.010857,155.057693 
z"/>
</svg>